<mxfile host="app.diagrams.net" agent="Mozilla/5.0 (Windows NT 10.0; Win64; x64) AppleWebKit/537.36 (KHTML, like Gecko) Chrome/131.0.0.0 Safari/537.36" version="26.0.5">
  <diagram name="Page-1" id="UqRQ3ehWizsY8x3b88n0">
    <mxGraphModel dx="1674" dy="822" grid="0" gridSize="10" guides="1" tooltips="1" connect="1" arrows="1" fold="1" page="0" pageScale="1" pageWidth="827" pageHeight="1169" math="0" shadow="0">
      <root>
        <mxCell id="0" />
        <mxCell id="1" parent="0" />
        <mxCell id="QCE3w9irfB1_1WQfkt-C-3" value="" style="edgeStyle=none;curved=1;rounded=0;orthogonalLoop=1;jettySize=auto;html=1;fontSize=12;startSize=8;endSize=8;" edge="1" parent="1" source="QCE3w9irfB1_1WQfkt-C-1" target="QCE3w9irfB1_1WQfkt-C-2">
          <mxGeometry relative="1" as="geometry" />
        </mxCell>
        <mxCell id="QCE3w9irfB1_1WQfkt-C-1" value="sfdas" style="rounded=1;whiteSpace=wrap;html=1;" vertex="1" parent="1">
          <mxGeometry x="140" y="170" width="120" height="60" as="geometry" />
        </mxCell>
        <mxCell id="QCE3w9irfB1_1WQfkt-C-6" value="" style="edgeStyle=none;curved=1;rounded=0;orthogonalLoop=1;jettySize=auto;html=1;fontSize=12;startSize=8;endSize=8;" edge="1" parent="1" source="QCE3w9irfB1_1WQfkt-C-2" target="QCE3w9irfB1_1WQfkt-C-5">
          <mxGeometry relative="1" as="geometry" />
        </mxCell>
        <mxCell id="QCE3w9irfB1_1WQfkt-C-2" value="fdsaaa" style="whiteSpace=wrap;html=1;rounded=1;" vertex="1" parent="1">
          <mxGeometry x="380" y="170" width="120" height="60" as="geometry" />
        </mxCell>
        <mxCell id="QCE3w9irfB1_1WQfkt-C-5" value="dsfadsf" style="whiteSpace=wrap;html=1;rounded=1;" vertex="1" parent="1">
          <mxGeometry x="620" y="170" width="120" height="60" as="geometry" />
        </mxCell>
      </root>
    </mxGraphModel>
  </diagram>
</mxfile>
